# xmcd
#
# Track frame offsets: 
#        150
#        15777
#        32175
#        48130
#        65012
#        80767
#        98325
#        113917
#        130775
#        144412
#
# Disc length: 2131 seconds
#
# Revision: 0
# Processed by: cddbd v1.4PL0 Copyright (c) Steve Scherf et al.
# Submitted via: ExactAudioCopy v0.90b4
#
DISCID=7608510a
DTITLE=12 Gauge - Until You Walk The Tracks
DYEAR=1997
DGENRE=
TTITLE0=Tonight She Just Wants To Dance
TTITLE1=Some Trains Never Come
TTITLE2=Heaven Is Wherever You Are
TTITLE3=Love's A Trip
TTITLE4=Easy Street
TTITLE5=Season Of Goodbye
TTITLE6=Hard Labor Of Love
TTITLE7=Blind Faith
TTITLE8=I Just Wanna Have You
TTITLE9=Peace Country Boys
EXTD=
EXTT0=
EXTT1=
EXTT2=
EXTT3=
EXTT4=
EXTT5=
EXTT6=
EXTT7=
EXTT8=
EXTT9=
PLAYORDER=
